<svg width="433" height="135" viewBox="0 0 433 135" fill="none" xmlns="http://www.w3.org/2000/svg">
<rect width="432.506" height="134.4" fill="#133E87"/>
<path d="M95.9635 61.4153C89.6655 68.5951 74.4218 79.8458 63.8305 67.4101C53.2393 54.9744 74.7411 33.1143 88.0134 23.3204C94.766 19.0683 118.144 23.9827 117.851 48.6589C117.485 79.5042 105.643 54.3749 105.444 54.0961C105.244 53.8172 104.579 51.482 105.444 48.0316C106.136 45.2712 101.829 42.1646 99.5893 40.9563" stroke="#F3F3E0" stroke-width="2.916" stroke-linecap="round"/>
<path d="M38.7574 66.0567C34.0359 60.4523 31.2087 52.5342 31.7861 45.2289C32.3635 37.9235 35.7954 31.1397 41.3387 26.3466C46.8819 21.5535 54.0902 19.137 61.4024 19.6204C68.7146 20.1039 75.5419 23.4484 80.4059 28.9296" stroke="#F3F3E0" stroke-width="2.916" stroke-linecap="round"/>
<path d="M119.239 47.5725C124.06 51.1294 127.402 56.3374 128.627 62.2021C129.852 68.0667 128.875 74.1772 125.881 79.3667C122.887 84.5562 118.086 88.4612 112.396 90.3362C106.706 92.2112 100.524 91.9247 95.0315 89.5314" stroke="#F3F3E0" stroke-width="2.916" stroke-linecap="round"/>
<path d="M71.198 99.5906C65.7208 103.794 59.9179 105.558 53.0359 105.004C46.154 104.449 39.7229 101.36 34.9891 96.3337C30.2554 91.3077 27.5561 84.7033 27.4145 77.8005C27.2729 70.8977 29.6991 64.1881 34.2227 58.9722" stroke="#F3F3E0" stroke-width="2.916" stroke-linecap="round"/>
<path d="M106.324 92.0346C104.751 96.058 102.264 99.6605 99.0589 102.558C95.8542 105.455 92.0198 107.567 87.8585 108.727C83.6973 109.888 79.3232 110.065 75.0818 109.245C70.8403 108.424 67.3364 106.942 63.908 104.314" stroke="#F3F3E0" stroke-width="2.916" stroke-linecap="round"/>
<ellipse cx="89.9841" cy="40.4581" rx="4.96489" ry="7.05677" transform="rotate(15.0486 89.9841 40.4581)" stroke="#F3F3E0" stroke-width="2.916" stroke-linecap="round"/>
<path d="M162.676 76.6806C163.115 76.6806 163.535 76.6171 163.936 76.4902C164.346 76.3535 164.707 76.163 165.02 75.9189C165.323 75.6747 165.562 75.3867 165.738 75.0546C165.923 74.7226 166.016 74.3564 166.016 73.956H169.312C169.322 74.7275 169.146 75.455 168.784 76.1386C168.433 76.8124 167.954 77.3935 167.349 77.8818C166.734 78.3896 166.026 78.79 165.225 79.0829C164.434 79.3661 163.599 79.5078 162.72 79.5078C161.499 79.5078 160.43 79.2978 159.512 78.8779C158.604 78.4482 157.847 77.872 157.241 77.1494C156.626 76.4267 156.162 75.5869 155.85 74.6298C155.537 73.663 155.381 72.6328 155.381 71.539V71.0263C155.381 69.9423 155.532 68.9169 155.835 67.9501C156.148 66.9833 156.612 66.1386 157.227 65.416C157.842 64.6933 158.604 64.122 159.512 63.7021C160.43 63.2724 161.494 63.0576 162.705 63.0576C163.662 63.0576 164.546 63.204 165.357 63.497C166.177 63.79 166.88 64.2001 167.466 64.7275C168.052 65.2548 168.506 65.8847 168.828 66.6171C169.16 67.3495 169.322 68.1552 169.312 69.0341H166.016C166.016 68.6044 165.933 68.1992 165.767 67.8183C165.611 67.4374 165.386 67.1054 165.093 66.8222C164.79 66.539 164.429 66.3144 164.009 66.1484C163.599 65.9824 163.155 65.8994 162.676 65.8994C161.944 65.8994 161.333 66.0507 160.845 66.3535C160.366 66.6464 159.986 67.0322 159.702 67.5107C159.4 67.9892 159.185 68.5361 159.058 69.1513C158.941 69.7665 158.882 70.3915 158.882 71.0263V71.539C158.882 72.1835 158.941 72.8183 159.058 73.4433C159.185 74.0585 159.395 74.6005 159.688 75.0693C159.971 75.5576 160.357 75.9482 160.845 76.2411C161.333 76.5341 161.944 76.6806 162.676 76.6806ZM174.468 56.7001H183.008V76.2997H187.813V79.2001H174.468V76.2997H179.478V59.6152H174.468V56.7001ZM191.167 71.1288C191.167 69.9765 191.333 68.912 191.665 67.9355C191.997 66.9492 192.481 66.0947 193.115 65.372C193.74 64.6494 194.507 64.0829 195.415 63.6728C196.323 63.2626 197.359 63.0576 198.521 63.0576C199.683 63.0576 200.718 63.2626 201.626 63.6728C202.544 64.0829 203.321 64.6494 203.955 65.372C204.58 66.0947 205.059 66.9492 205.391 67.9355C205.723 68.912 205.889 69.9765 205.889 71.1288V71.4365C205.889 72.5986 205.723 73.6679 205.391 74.6445C205.059 75.621 204.58 76.4706 203.955 77.1933C203.33 77.916 202.559 78.4824 201.641 78.8925C200.733 79.3027 199.702 79.5078 198.55 79.5078C197.388 79.5078 196.348 79.3027 195.43 78.8925C194.512 78.4824 193.74 77.916 193.115 77.1933C192.481 76.4706 191.997 75.621 191.665 74.6445C191.333 73.6679 191.167 72.5986 191.167 71.4365V71.1288ZM194.668 71.4365C194.668 72.1494 194.741 72.8232 194.888 73.4579C195.044 74.0927 195.283 74.6494 195.606 75.1279C195.918 75.6064 196.319 75.9872 196.807 76.2704C197.295 76.5439 197.876 76.6806 198.55 76.6806C199.204 76.6806 199.776 76.5439 200.264 76.2704C200.752 75.9872 201.153 75.6064 201.465 75.1279C201.778 74.6494 202.007 74.0927 202.154 73.4579C202.31 72.8232 202.388 72.1494 202.388 71.4365V71.1288C202.388 70.4355 202.31 69.7714 202.154 69.1367C201.997 68.5019 201.768 67.9453 201.465 67.4667C201.143 66.9882 200.738 66.6074 200.249 66.3242C199.771 66.041 199.195 65.8994 198.521 65.8994C197.857 65.8994 197.281 66.041 196.792 66.3242C196.314 66.6074 195.918 66.9882 195.606 67.4667C195.283 67.9453 195.044 68.5019 194.888 69.1367C194.741 69.7714 194.668 70.4355 194.668 71.1288V71.4365ZM220.215 79.2001L220.01 76.9882C219.473 77.7792 218.819 78.3994 218.047 78.8486C217.276 79.288 216.411 79.5078 215.454 79.5078C214.634 79.5078 213.882 79.3808 213.198 79.1269C212.525 78.8632 211.944 78.4579 211.455 77.9111C210.977 77.3642 210.606 76.666 210.342 75.8163C210.078 74.957 209.947 73.9316 209.947 72.7402V63.3505H213.448V72.7695C213.448 73.5019 213.501 74.1171 213.609 74.6152C213.716 75.1035 213.887 75.4941 214.121 75.787C214.356 76.0898 214.654 76.3046 215.015 76.4316C215.376 76.5585 215.801 76.622 216.289 76.622C216.797 76.622 217.251 76.5683 217.652 76.4609C218.052 76.3437 218.404 76.1874 218.706 75.9921C218.96 75.8163 219.185 75.6113 219.38 75.3769C219.575 75.1328 219.741 74.8642 219.878 74.5712V63.3505H223.394V79.2001H220.215ZM227.378 71.1581C227.378 69.957 227.52 68.8632 227.803 67.8769C228.096 66.8808 228.516 66.0263 229.063 65.3134C229.6 64.6005 230.254 64.0488 231.026 63.6581C231.807 63.2578 232.686 63.0576 233.662 63.0576C234.541 63.0576 235.308 63.2138 235.962 63.5263C236.626 63.829 237.212 64.2636 237.72 64.83V56.7001H241.221V79.2001H238.042L237.881 77.5449C237.373 78.1699 236.768 78.6533 236.065 78.9951C235.362 79.3271 234.551 79.4931 233.633 79.4931C232.666 79.4931 231.797 79.2929 231.026 78.8925C230.254 78.4824 229.6 77.916 229.063 77.1933C228.526 76.4804 228.111 75.6357 227.818 74.6591C227.525 73.6728 227.378 72.6083 227.378 71.4658V71.1581ZM230.879 71.4658C230.879 72.1689 230.948 72.8329 231.084 73.4579C231.221 74.0829 231.436 74.6249 231.729 75.0839C232.022 75.5624 232.398 75.9384 232.857 76.2119C233.316 76.4755 233.867 76.6074 234.512 76.6074C235.303 76.6074 235.957 76.4365 236.475 76.0947C236.992 75.7431 237.407 75.2695 237.72 74.6738V67.8622C237.407 67.2763 236.992 66.8124 236.475 66.4706C235.967 66.1191 235.323 65.9433 234.541 65.9433C233.887 65.9433 233.325 66.08 232.857 66.3535C232.398 66.6269 232.027 67.0029 231.743 67.4814C231.441 67.9599 231.221 68.5165 231.084 69.1513C230.948 69.7763 230.879 70.4453 230.879 71.1581V71.4658ZM256.895 73.707C256.895 73.2089 256.792 72.7695 256.587 72.3886C256.382 72.0078 256.094 71.666 255.723 71.3632C255.332 71.08 254.868 70.8261 254.331 70.6015C253.804 70.3671 253.213 70.1572 252.559 69.9716C251.553 69.6884 250.625 69.3417 249.776 68.9316C248.936 68.5117 248.218 68.0429 247.622 67.5253C247.027 66.998 246.558 66.4023 246.216 65.7382C245.884 65.0644 245.718 64.3076 245.718 63.4677C245.718 62.5595 245.913 61.7441 246.304 61.0214C246.695 60.289 247.222 59.664 247.886 59.1464C248.55 58.6386 249.322 58.2529 250.2 57.9892C251.089 57.7158 252.022 57.579 252.998 57.579C254.033 57.579 254.995 57.7402 255.884 58.0624C256.782 58.3749 257.564 58.8144 258.228 59.3808C258.892 59.957 259.414 60.6454 259.795 61.4462C260.186 62.2372 260.381 63.1161 260.381 64.0829H256.895C256.846 63.5458 256.729 63.0576 256.543 62.6181C256.367 62.1689 256.118 61.7831 255.796 61.4609C255.464 61.1484 255.059 60.9042 254.58 60.7285C254.112 60.5429 253.57 60.4501 252.954 60.4501C252.417 60.4501 251.919 60.5234 251.46 60.6699C251.011 60.8066 250.62 61.0019 250.288 61.2558C249.956 61.5195 249.698 61.8369 249.512 62.2079C249.326 62.579 249.234 62.9941 249.234 63.4531C249.243 63.9413 249.37 64.371 249.615 64.7421C249.859 65.1035 250.186 65.4208 250.596 65.6943C251.016 65.9677 251.494 66.207 252.031 66.412C252.578 66.6171 253.15 66.8076 253.745 66.9833C254.497 67.1982 255.23 67.4667 255.943 67.789C256.665 68.1015 257.329 68.4824 257.935 68.9316C258.687 69.498 259.287 70.1767 259.737 70.9677C260.196 71.749 260.425 72.6523 260.425 73.6777C260.425 74.6249 260.225 75.4599 259.824 76.1826C259.434 76.9052 258.906 77.5058 258.242 77.9843C257.569 78.4824 256.787 78.8583 255.899 79.1122C255.01 79.3564 254.073 79.4785 253.086 79.4785C252.041 79.4785 251.011 79.3173 249.995 78.9951C248.98 78.663 248.096 78.1845 247.344 77.5595C246.651 76.9736 246.099 76.2851 245.689 75.4941C245.288 74.7031 245.083 73.7949 245.073 72.7695H248.589C248.638 73.4238 248.775 73.9951 248.999 74.4833C249.234 74.9619 249.551 75.3574 249.951 75.6699C250.342 75.9921 250.801 76.2314 251.328 76.3876C251.865 76.5439 252.451 76.622 253.086 76.622C253.623 76.622 254.121 76.5585 254.58 76.4316C255.049 76.3046 255.454 76.1142 255.796 75.8603C256.128 75.6161 256.392 75.3134 256.587 74.9521C256.792 74.5908 256.895 74.1757 256.895 73.707ZM267.383 65.6064C267.588 65.2939 267.818 65.0058 268.072 64.7421C268.325 64.4785 268.594 64.249 268.877 64.0536C269.317 63.7314 269.8 63.4872 270.327 63.3212C270.865 63.1454 271.431 63.0576 272.027 63.0576C272.857 63.0576 273.614 63.1796 274.297 63.4238C274.99 63.6679 275.581 64.0488 276.07 64.5663C276.558 65.0839 276.934 65.748 277.198 66.5585C277.471 67.3593 277.608 68.3212 277.608 69.4443V79.2001H274.107V69.415C274.107 68.829 274.033 68.3163 273.887 67.8769C273.75 67.4374 273.545 67.081 273.272 66.8076C272.989 66.5146 272.642 66.2997 272.232 66.163C271.831 66.0165 271.367 65.9433 270.84 65.9433C270.43 65.9433 270.039 65.9921 269.668 66.0898C269.307 66.1874 268.975 66.329 268.672 66.5146C268.418 66.6611 268.179 66.8369 267.954 67.0419C267.74 67.247 267.549 67.4765 267.383 67.7304V79.2001H263.882V56.7001H267.383V65.6064ZM289.297 79.4931C288.125 79.4931 287.051 79.2978 286.074 78.9072C285.108 78.5165 284.278 77.9745 283.584 77.2812C282.891 76.5976 282.354 75.7919 281.973 74.8642C281.602 73.9267 281.416 72.916 281.416 71.832V71.2314C281.416 69.9911 281.612 68.8681 282.002 67.8622C282.393 66.8564 282.93 65.997 283.614 65.2841C284.297 64.5712 285.088 64.0244 285.987 63.6435C286.895 63.2529 287.862 63.0576 288.887 63.0576C290.03 63.0576 291.04 63.2529 291.919 63.6435C292.798 64.0244 293.535 64.5566 294.131 65.2402C294.727 65.9335 295.176 66.7587 295.479 67.7158C295.781 68.6728 295.933 69.7177 295.933 70.8505V72.3593H284.947V72.4326C285.054 73.1259 285.22 73.707 285.445 74.1757C285.669 74.6445 285.977 75.0644 286.367 75.4355C286.758 75.8261 287.217 76.1288 287.744 76.3437C288.281 76.5585 288.867 76.666 289.502 76.666C290.371 76.666 291.182 76.4999 291.934 76.1679C292.686 75.8261 293.306 75.3427 293.794 74.7177L295.669 76.5341C295.142 77.2958 294.331 77.9794 293.238 78.5849C292.154 79.1904 290.84 79.4931 289.297 79.4931ZM288.872 65.8994C288.374 65.8994 287.91 65.9921 287.481 66.1777C287.061 66.3535 286.685 66.6074 286.353 66.9394C286.021 67.2812 285.742 67.6913 285.518 68.1699C285.293 68.6484 285.127 69.1904 285.02 69.7958H292.476V69.5615C292.476 69.1025 292.393 68.6484 292.227 68.1992C292.061 67.7402 291.826 67.3398 291.524 66.998C291.231 66.666 290.86 66.4023 290.41 66.207C289.971 66.0019 289.458 65.8994 288.872 65.8994ZM307.315 79.4931C306.143 79.4931 305.069 79.2978 304.092 78.9072C303.125 78.5165 302.295 77.9745 301.602 77.2812C300.908 76.5976 300.371 75.7919 299.99 74.8642C299.619 73.9267 299.434 72.916 299.434 71.832V71.2314C299.434 69.9911 299.629 68.8681 300.02 67.8622C300.41 66.8564 300.948 65.997 301.631 65.2841C302.315 64.5712 303.106 64.0244 304.004 63.6435C304.912 63.2529 305.879 63.0576 306.905 63.0576C308.047 63.0576 309.058 63.2529 309.937 63.6435C310.816 64.0244 311.553 64.5566 312.149 65.2402C312.744 65.9335 313.194 66.7587 313.496 67.7158C313.799 68.6728 313.95 69.7177 313.95 70.8505V72.3593H302.964V72.4326C303.072 73.1259 303.238 73.707 303.462 74.1757C303.687 74.6445 303.994 75.0644 304.385 75.4355C304.776 75.8261 305.235 76.1288 305.762 76.3437C306.299 76.5585 306.885 76.666 307.52 76.666C308.389 76.666 309.199 76.4999 309.951 76.1679C310.703 75.8261 311.323 75.3427 311.812 74.7177L313.687 76.5341C313.159 77.2958 312.349 77.9794 311.255 78.5849C310.171 79.1904 308.858 79.4931 307.315 79.4931ZM306.89 65.8994C306.392 65.8994 305.928 65.9921 305.498 66.1777C305.078 66.3535 304.702 66.6074 304.37 66.9394C304.038 67.2812 303.76 67.6913 303.535 68.1699C303.311 68.6484 303.145 69.1904 303.037 69.7958H310.493V69.5615C310.493 69.1025 310.41 68.6484 310.244 68.1992C310.078 67.7402 309.844 67.3398 309.541 66.998C309.248 66.666 308.877 66.4023 308.428 66.207C307.989 66.0019 307.476 65.8994 306.89 65.8994ZM317.964 85.2939V63.3505H321.187L321.319 64.9765C321.533 64.7128 321.768 64.4736 322.022 64.2587C322.276 64.0439 322.549 63.8583 322.842 63.7021C323.223 63.497 323.643 63.3408 324.102 63.2333C324.561 63.1161 325.049 63.0576 325.567 63.0576C326.582 63.0576 327.476 63.2529 328.247 63.6435C329.029 64.0341 329.683 64.5859 330.21 65.2988C330.728 66.0117 331.123 66.8661 331.397 67.8622C331.67 68.8486 331.807 69.9374 331.807 71.1288V71.4365C331.807 72.579 331.67 73.6435 331.397 74.6298C331.133 75.6161 330.738 76.4658 330.21 77.1786C329.683 77.9013 329.033 78.4677 328.262 78.8779C327.49 79.288 326.607 79.4931 325.611 79.4931C325.044 79.4931 324.522 79.4345 324.043 79.3173C323.574 79.2001 323.14 79.0292 322.74 78.8046C322.505 78.6679 322.281 78.5117 322.066 78.3359C321.851 78.1601 321.651 77.9697 321.465 77.7646V85.2939H317.964ZM328.306 71.1288C328.306 70.416 328.233 69.747 328.086 69.122C327.949 68.4872 327.735 67.9355 327.442 67.4667C327.139 66.998 326.753 66.6269 326.284 66.3535C325.816 66.08 325.254 65.9433 324.6 65.9433C324.239 65.9433 323.902 65.9824 323.589 66.0605C323.277 66.1386 322.998 66.2509 322.754 66.3974C322.471 66.5536 322.222 66.749 322.007 66.9833C321.802 67.2177 321.621 67.4814 321.465 67.7744V74.8203C321.602 75.0937 321.768 75.3427 321.963 75.5673C322.158 75.7919 322.383 75.9872 322.637 76.1533C322.901 76.3095 323.198 76.4365 323.531 76.5341C323.863 76.622 324.229 76.666 324.629 76.666C325.283 76.666 325.84 76.5292 326.299 76.2558C326.768 75.9726 327.149 75.5917 327.442 75.1132C327.744 74.6249 327.964 74.0683 328.101 73.4433C328.238 72.8085 328.306 72.1396 328.306 71.4365V71.1288ZM340.318 77.0908C340.318 76.4169 340.532 75.8408 340.962 75.3622C341.402 74.8837 342.031 74.6445 342.852 74.6445C343.653 74.6445 344.278 74.8837 344.727 75.3622C345.176 75.831 345.401 76.4072 345.401 77.0908C345.401 77.7744 345.171 78.3456 344.712 78.8046C344.263 79.2636 343.643 79.4931 342.852 79.4931C342.051 79.4931 341.426 79.2636 340.977 78.8046C340.537 78.3359 340.318 77.7646 340.318 77.0908ZM353.501 71.1581C353.501 69.957 353.643 68.8632 353.926 67.8769C354.219 66.8808 354.639 66.0263 355.186 65.3134C355.723 64.6005 356.377 64.0488 357.149 63.6581C357.93 63.2578 358.809 63.0576 359.785 63.0576C360.664 63.0576 361.431 63.2138 362.085 63.5263C362.749 63.829 363.335 64.2636 363.843 64.83V56.7001H367.344V79.2001H364.165L364.004 77.5449C363.496 78.1699 362.891 78.6533 362.188 78.9951C361.485 79.3271 360.674 79.4931 359.756 79.4931C358.789 79.4931 357.92 79.2929 357.149 78.8925C356.377 78.4824 355.723 77.916 355.186 77.1933C354.649 76.4804 354.234 75.6357 353.941 74.6591C353.648 73.6728 353.501 72.6083 353.501 71.4658V71.1581ZM357.002 71.4658C357.002 72.1689 357.071 72.8329 357.207 73.4579C357.344 74.0829 357.559 74.6249 357.852 75.0839C358.145 75.5624 358.521 75.9384 358.98 76.2119C359.439 76.4755 359.99 76.6074 360.635 76.6074C361.426 76.6074 362.08 76.4365 362.598 76.0947C363.115 75.7431 363.531 75.2695 363.843 74.6738V67.8622C363.531 67.2763 363.115 66.8124 362.598 66.4706C362.09 66.1191 361.446 65.9433 360.664 65.9433C360.01 65.9433 359.448 66.08 358.98 66.3535C358.521 66.6269 358.15 67.0029 357.866 67.4814C357.564 67.9599 357.344 68.5165 357.207 69.1513C357.071 69.7763 357.002 70.4453 357.002 71.1581V71.4658ZM379.385 79.4931C378.213 79.4931 377.139 79.2978 376.162 78.9072C375.196 78.5165 374.365 77.9745 373.672 77.2812C372.979 76.5976 372.442 75.7919 372.061 74.8642C371.69 73.9267 371.504 72.916 371.504 71.832V71.2314C371.504 69.9911 371.699 68.8681 372.09 67.8622C372.481 66.8564 373.018 65.997 373.701 65.2841C374.385 64.5712 375.176 64.0244 376.074 63.6435C376.983 63.2529 377.949 63.0576 378.975 63.0576C380.117 63.0576 381.128 63.2529 382.007 63.6435C382.886 64.0244 383.623 64.5566 384.219 65.2402C384.815 65.9335 385.264 66.7587 385.567 67.7158C385.869 68.6728 386.021 69.7177 386.021 70.8505V72.3593H375.034V72.4326C375.142 73.1259 375.308 73.707 375.532 74.1757C375.757 74.6445 376.065 75.0644 376.455 75.4355C376.846 75.8261 377.305 76.1288 377.832 76.3437C378.369 76.5585 378.955 76.666 379.59 76.666C380.459 76.666 381.27 76.4999 382.022 76.1679C382.774 75.8261 383.394 75.3427 383.882 74.7177L385.757 76.5341C385.23 77.2958 384.419 77.9794 383.325 78.5849C382.241 79.1904 380.928 79.4931 379.385 79.4931ZM378.96 65.8994C378.462 65.8994 377.998 65.9921 377.569 66.1777C377.149 66.3535 376.773 66.6074 376.441 66.9394C376.109 67.2812 375.83 67.6913 375.606 68.1699C375.381 68.6484 375.215 69.1904 375.108 69.7958H382.564V69.5615C382.564 69.1025 382.481 68.6484 382.315 68.1992C382.149 67.7402 381.914 67.3398 381.612 66.998C381.319 66.666 380.948 66.4023 380.498 66.207C380.059 66.0019 379.546 65.8994 378.96 65.8994ZM395.191 79.2001L388.95 63.3505H392.583L396.509 74.8495L396.743 75.9042L396.978 74.8495L400.86 63.3505H404.492L398.281 79.2001H395.191Z" fill="#F3F3E0"/>
</svg>
