<svg width="512" height="400" viewBox="0 0 512 400" fill="none" xmlns="http://www.w3.org/2000/svg">
<path d="M34.91 399.418H116.364V201.6L0 114.327V364.51C0 383.797 15.622 399.42 34.91 399.42V399.418Z" fill="#4285F4"/>
<path d="M395.636 399.418H477.091C496.378 399.418 512 383.796 512 364.509V114.327L395.636 201.6V399.418Z" fill="#34A853"/>
<path d="M395.636 50.3271V201.6L512 114.327V67.7821C512 24.6401 462.75 6.58035e-05 428.218 25.8911L395.636 50.3271Z" fill="#FBBC04"/>
<path fill-rule="evenodd" clip-rule="evenodd" d="M116.364 201.6V50.3271L256 155.055L395.636 50.3271V201.6L256 306.327L116.364 201.6Z" fill="#EA4335"/>
<path d="M0 67.7821V114.327L116.364 201.6V50.3271L83.782 25.8911C49.25 0.000109673 0 24.6401 0 67.7801V67.7821Z" fill="#C5221F"/>
</svg>
